<svg xmlns="http://www.w3.org/2000/svg" viewBox="0 0 77.41 114.64"><title>Asset 1</title><g id="Layer_2" data-name="Layer 2"><g id="Logo"><path d="M10.39,89.27V87.16H8.46v2.11h-1V84.19h1v2.13h1.94V84.19h1v5.08Zm4.61,0h-.78L14.15,89a2.15,2.15,0,0,1-1.14.32c-.7,0-1-.46-1-1.09s.34-1,1.11-1H14v-.38c0-.41-.12-.55-.73-.55a5.55,5.55,0,0,0-1.06.11l-.12-.7a5.18,5.18,0,0,1,1.31-.17c1.2,0,1.55.41,1.55,1.32Zm-1-1.38h-.71c-.31,0-.4.08-.4.36s.09.37.38.37a1.55,1.55,0,0,0,.72-.19Zm3,1.46a4.67,4.67,0,0,1-1.32-.21l.13-.7a4.44,4.44,0,0,0,1.14.16c.42,0,.49-.09.49-.37s0-.34-.67-.48c-.93-.22-1-.44-1-1.15s.34-1.06,1.43-1.06a5.22,5.22,0,0,1,1.14.13l-.09.73a7,7,0,0,0-1.05-.11c-.42,0-.49.09-.49.32s0,.32.54.44c1.07.27,1.17.41,1.17,1.16S18.16,89.35,17,89.35Zm4.38-.08V86.71c0-.2-.09-.29-.31-.29a2.72,2.72,0,0,0-1,.31v2.54h-1V84.12l1,.14v1.62a3.48,3.48,0,0,1,1.4-.35c.63,0,.86.43.86,1.08v2.66Zm1.76-4.18v-.9h1v.9Zm0,4.18V85.61h1v3.67Zm1.72-3.63c0-.92.56-1.45,1.86-1.45a6.14,6.14,0,0,1,1.42.17l-.11.82A8,8,0,0,0,26.75,85c-.68,0-.9.23-.9.76v1.93c0,.53.22.76.9.76A8,8,0,0,0,28,88.36l.11.82a6.14,6.14,0,0,1-1.42.17c-1.3,0-1.86-.53-1.86-1.45Zm5.39,3.71c-1.31,0-1.66-.69-1.66-1.44V87c0-.75.35-1.44,1.66-1.44s1.66.69,1.66,1.44v.93C31.91,88.65,31.56,89.35,30.25,89.35Zm0-3c-.51,0-.71.22-.71.63v1c0,.41.2.63.71.63s.71-.22.71-.63v-1C31,86.53,30.76,86.31,30.25,86.31Zm4.35.06a7.58,7.58,0,0,0-1,.53v2.36h-1V85.61h.81l.06.41a4.35,4.35,0,0,1,1-.48Zm3.82,1.68a1.13,1.13,0,0,1-1.26,1.29,5.48,5.48,0,0,1-1-.11v1.5l-1,.14V85.61h.76l.09.31a2.06,2.06,0,0,1,1.21-.38c.77,0,1.18.44,1.18,1.27Zm-2.28.41a4.41,4.41,0,0,0,.85.1c.34,0,.48-.16.48-.49V86.78c0-.3-.12-.47-.47-.47a1.38,1.38,0,0,0-.85.33Z"/><path d="M21.73,93.36h4.12l-6.26,21H13.73l-6.26-21h4.12l5.07,17.47Z"/><path d="M37.31,114.32H34.16l-.28-1a8.38,8.38,0,0,1-4.56,1.35c-2.8,0-4-1.92-4-4.56,0-3.12,1.35-4.31,4.47-4.31h3.68v-1.61c0-1.7-.47-2.3-2.93-2.3a21.42,21.42,0,0,0-4.25.47l-.47-2.93a20,20,0,0,1,5.26-.72c4.82,0,6.23,1.7,6.23,5.54Zm-3.84-5.79H30.63c-1.26,0-1.61.35-1.61,1.51s.35,1.54,1.54,1.54a6,6,0,0,0,2.9-.79Z"/><path d="M43.35,99v10.7c0,.82.35,1.23,1.23,1.23a10.59,10.59,0,0,0,4-1.29V99h3.84v15.33H49.49L49.11,113A15.35,15.35,0,0,1,43,114.64c-2.55,0-3.46-1.79-3.46-4.53V99Z"/><path d="M54.46,114.32V92.73l3.84-.53v22.13Z"/><path d="M69.76,114a10.64,10.64,0,0,1-3.37.6c-2.8,0-4.22-1.32-4.22-4.06V102h-2.3V99h2.3V95.19L66,94.65V99h3.93L69.69,102H66v8a1.21,1.21,0,0,0,1.38,1.35,7.39,7.39,0,0,0,1.92-.31Z"/><path d="M0,0,38.57,77.41,77.41,0ZM43.16,15.54h4.49V20H43.16Zm-8.94,18H29.73V29h4.49Zm0-6.73H29.73V22.27h4.49Zm0-6.73H29.73V15.54h4.49ZM41,40.22H36.46V35.73H41Zm0-6.73H36.46V29H41Zm0-6.73H36.46V22.27H41ZM41,20H36.46V15.54H41Zm2.21,2.24h4.49v4.49H43.16Zm0,11.22V29h4.49v4.49Z"/></g></g></svg>