<?xml version="1.0" encoding="utf-8"?>
<!-- Generator: Adobe Illustrator 24.0.3, SVG Export Plug-In . SVG Version: 6.00 Build 0)  -->
<svg version="1.1" id="Layer_1" xmlns="http://www.w3.org/2000/svg" xmlns:xlink="http://www.w3.org/1999/xlink" x="0px" y="0px"
	 viewBox="0 0 400 400" style="enable-background:new 0 0 400 400;" xml:space="preserve">
<style type="text/css">
	.st0{fill:#C93D33;}
</style>
<path class="st0" d="M399.5465088,164.5041962c-1.5986938-9.6557159-6.1449585-17.7272034-11.2714844-22.6330414
	c-5.293396-4.9033813-11.1320496-6.679657-16.1810913-4.8192291c-4.7850647,1.7585449-8.1312256,6.3015594-9.9101257,11.9172211
	c-2.4491577,7.2096405-7.541687,12.6451111-14.4645386,15.1225891
	c-12.6348572,4.5928192-25.3647461,8.7844238-38.1687317,12.5876617
	c-3.5727539-17.1261139-11.0852966-32.7951202-21.5235901-46.0574493
	c11.1601562-7.3649216,22.6149597-14.4619217,34.217865-21.1614456c3.1500549-1.8208847,6.5709229-2.85495,10.1253052-3.0847778
	c3.5748596-0.2482224,7.2368164,0.3395309,10.7000122,1.7543106c5.5884705,2.1519547,11.0516357,2.6016846,15.4969788,0.0472031
	c4.6658936-2.6760635,7.1695862-8.3574753,6.7128601-15.4904556c-0.3417969-7.1546249-3.7753906-15.6686859-10.0195007-23.1703262
	c-6.258728-7.4974136-14.1511841-12.2411232-21.0759888-13.87043c-6.9677734-1.6467209-12.9786072-0.1847382-16.406189,3.9297066
	c-3.282196,3.9300308-3.8532104,9.4644661-2.6360168,15.2642097c0.7213745,3.7301483,0.726593,7.3785858-0.1166992,10.8361053
	c-0.8631592,3.4827423-2.4877625,6.6882935-4.8306274,9.4817123c-8.6358032,10.3022308-17.489563,20.2541809-26.7196655,30.019928
	c-11.3764954-12.7110291-25.6245422-22.7826157-41.7221069-29.2308273
	c5.998642-11.9767838,12.3783264-23.8386536,19.0825806-35.4112854c3.5948792-6.2631454,9.9441223-10.5470314,17.3959656-11.5532646
	c5.9342041-0.9487724,10.8610229-3.2200356,13.4586182-7.6818275c2.6933289-4.6138191,2.0675049-10.8476639-1.9067993-16.7742043
	c-3.8497925-6.0704269-11.1204834-11.6742001-20.2805481-15.12146c-4.6270142-1.5687571-9.193634-2.6259341-13.5299225-2.7506142
	c-2.1579895-0.0968471-4.2292023-0.0621772-6.1905518,0.1385155c-1.9753571,0.2552199-3.8335114,0.6442351-5.5456696,1.1574421
	c-6.8546448,1.9698162-11.3468781,6.3723621-12.2460022,11.6261826c-0.8761749,5.0847054,1.4380493,10.0027351,5.3776855,14.5324039
	c5.0607758,5.5747986,7.1766052,12.9107437,5.8990326,20.0388374c-2.3070679,13.1845207-5.0332642,26.3286781-8.145874,39.3824959
	c-10.9671326-3.6012344-22.6717682-5.5760956-34.8435516-5.5760956c-5.4156189,0-10.734375,0.4067535-15.943924,1.1520691
	c-0.7734833-13.3411102-1.1592407-26.7442245-1.1387329-40.1938972c-0.0258789-7.3536873,3.3588867-13.9651566,9.2894897-18.7244892
	c4.6634674-3.6027031,7.7778625-8.3076706,7.7931671-13.4057236c0.0198517-5.394289-3.6297302-10.2213326-10.0154419-13.5696297
	c-3.1790161-1.5386444-7.0261993-2.7315702-11.2991791-3.3056524c-4.2602844-0.439636-8.9745331-0.5242752-13.7706451,0.414407
	c-9.6555481,1.5987059-17.7272186,6.1449747-22.6330414,11.2715111c-4.9032135,5.2933741-6.679657,11.13202-4.8192291,16.1810799
	c1.7587128,4.7850475,6.3017273,8.1312313,11.9173737,9.91012c7.2096405,2.4491692,12.6451111,7.541687,15.1226044,14.4645309
	c4.5928192,12.6348534,8.7844238,25.3647652,12.5876465,38.1687355
	c-17.1262665,3.5727539-32.7952728,11.0853043-46.0576019,21.5236053
	c-7.3647537-11.1603394-14.4617615-22.6149673-21.1612854-34.2178726
	c-1.8208847-3.1500473-2.8551102-6.5709381-3.0847778-10.1252975c-0.2482224-3.5748711,0.3395386-7.236824,1.7543106-10.7000351
	c2.1519547-5.5884705,2.6015244-11.0516129,0.0470428-15.4969635c-2.6760635-4.665905-8.3573151-7.1695976-15.4904556-6.7128716
	c-7.1544571,0.3418121-15.6685181,3.7753983-23.1703262,10.0195007
	c-7.4974174,6.2587509-12.2411232,14.1511993-13.870266,21.0759926c-1.6468849,6.9677658-0.184742,12.9786224,3.9295425,16.406189
	c3.9301949,3.2820511,9.4644585,3.8532028,15.26437,2.6360245c3.7299881-0.7213821,7.3784256-0.726593,10.8359451,0.1167068
	c3.4829025,0.8631592,6.6882935,2.4877396,9.4817123,4.8306198c10.3025589,8.6358185,20.2543488,17.4894104,30.0200958,26.7196503
	c-12.7110367,11.3766556-22.7829437,25.6245499-29.2309952,41.7221146
	c-11.9766235-5.998642-23.8384933-12.3783264-35.4111252-19.0825653
	c-6.2631416-3.5948944-10.5470314-9.9441376-11.5534248-17.3959808c-0.9486122-5.9343567-3.2200356-10.8610153-7.6816673-13.4586258
	c-4.6139793-2.6933212-10.847662-2.0674744-16.7743664,1.9068222c-6.0702629,3.8497925-11.6740351,11.1204681-15.121459,20.2805481
	c-1.5687561,4.6270142-2.6259336,9.1936188-2.7506137,13.5299225c-0.0968471,2.1579742-0.0621772,4.2292023,0.1385155,6.1905518
	c0.2552199,1.9753418,0.6442351,3.8335114,1.1574426,5.5456543c1.9698162,6.8546448,6.3725243,11.3468781,11.6261826,12.2460022
	c5.0848675,0.8761902,10.0028992-1.4380493,14.5324039-5.3776855c5.5749588-5.0607758,12.9107437-7.17659,20.0388374-5.8990326
	c13.1846886,2.3070831,26.3291664,5.0332794,39.3826637,8.1458893c-3.6012421,10.9671326-5.5761032,22.6716003-5.5761032,34.8433838
	c0,5.4156189,0.4067535,10.7345428,1.1520691,15.9440918c-13.3412704,0.773468-26.7442245,1.1592255-40.1940575,1.1387177
	c-7.3536873,0.0258789-13.9651566-3.3588715-18.7243252-9.2894897c-3.602705-4.6634521-8.3078346-7.7778625-13.4057236-7.7931519
	c-5.394453-0.0198669-10.2213345,3.629715-13.5697947,10.0154266c-1.5386446,3.1790161-2.7314076,7.0261993-3.3056526,11.2991791
	c-0.439636,4.2602844-0.5242752,8.9745331,0.4145697,13.7706604c1.5985432,9.6555481,6.1448126,17.7272034,11.271349,22.6330414
	c5.2933741,4.9031982,11.1321821,6.679657,16.1810799,4.8192139c4.7850475-1.7586975,8.1313915-6.301712,9.91012-11.9173737
	c2.4493294-7.2096405,7.5418472-12.6451111,14.4645271-15.1226044c12.6348572-4.5928192,25.3649292-8.784256,38.1688995-12.5876465
	c3.5725937,17.1262665,11.0853043,32.7952881,21.523613,46.0576172
	c-11.160347,7.3647461-22.6151352,14.4617615-34.2180405,21.1612854c-3.1500473,1.8208618-6.5709381,2.8551025-10.1252975,3.0847778
	c-3.5748749,0.2481995-7.236824-0.3395386-10.7000351-1.7543335c-5.5884705-2.151947-11.0516129-2.6015015-15.4968033-0.0470276
	c-4.6660652,2.6759033-7.1697578,8.3573303-6.7130318,15.490448c0.3418121,7.15448,3.7753983,15.6685181,10.0196609,23.1703491
	c6.2585869,7.497406,14.1510391,12.2409363,21.0758324,13.8702393c6.9679337,1.6468811,12.9786224,0.1847534,16.406189-3.9295349
	c3.2822113-3.9301758,3.8532028-9.464447,2.6361847-15.2643738c-0.7213821-3.7299805-0.7267532-7.378418,0.1167068-10.8359375
	c0.862999-3.4829102,2.4877472-6.6882935,4.8306274-9.48172c8.6356506-10.3025513,17.4892426-20.2543335,26.7196426-30.0200806
	c11.3766632,12.7110291,25.6245422,22.7827759,41.7219543,29.230835
	c-5.9984741,11.9766235-12.3781586,23.8386536-19.0825653,35.4112854
	c-3.5948944,6.2631226-9.9441528,10.5470276-17.3959808,11.5534058c-5.9341965,0.9486084-10.8608475,3.2200317-13.4586258,7.6816711
	c-2.6931534,4.6138306-2.0674744,10.8476562,1.9069901,16.7743835c3.8497849,6.0702515,11.1203003,11.6740112,20.2803802,15.12146
	c4.6271667,1.5687561,9.1937866,2.6257629,13.5299225,2.7506104c2.1581421,0.0968323,4.2292023,0.0620117,6.1907043-0.1386719
	c1.9751892-0.2550659,3.8333588-0.6442566,5.5455017-1.1572876c6.8546448-1.9698181,11.3470459-6.3725281,12.2460022-11.6261902
	c0.8761902-5.0848694-1.4378815-10.0028992-5.3776855-14.5325623c-5.0607758-5.5747986-7.1764374-12.9105835-5.8988647-20.0386658
	c2.3069-13.1846924,5.0331116-26.3291931,8.145874-39.3826599c10.9671478,3.6012268,22.6716156,5.5760803,34.843399,5.5760803
	c5.4156036,0,10.7345428-0.4067383,15.9440765-1.1520691c0.7733154,13.3412781,1.1590729,26.7442322,1.1385651,40.1940613
	c0.0258789,7.3536987-3.3587036,13.9649963-9.2894897,18.7243347c-4.6632996,3.6026917-7.7778625,8.3076782-7.7931519,13.4057312
	c-0.0196991,5.3944397,3.629715,10.2213135,10.0154266,13.5696106c3.179184,1.5386658,7.0263672,2.7315674,11.2993469,3.3058167
	c4.2602844,0.4394836,8.9743652,0.5241089,13.7704926-0.4145508c9.6557007-1.5987244,17.7272034-6.144989,22.6330261-11.2713623
	c4.9033813-5.2935486,6.679657-11.1321716,4.8192444-16.1812439c-1.7585449-4.7848816-6.3015747-8.1312256-11.9173889-9.9099426
	c-7.2094727-2.4493408-12.6449432-7.5418701-15.1224365-14.4645386
	c-4.5928192-12.6348572-8.784256-25.3649292-12.5876465-38.1689148
	c17.1260986-3.5725708,32.7952728-11.0852966,46.0576172-21.5235901
	c7.3647461,11.1603394,14.4617615,22.6151123,21.1612854,34.217865c1.8208618,3.1502075,2.8549194,6.571106,3.0847778,10.1253052
	c0.2481995,3.5750427-0.3395386,7.236969-1.7543335,10.7000427c-2.151947,5.588623-2.6016846,11.0517578-0.0472107,15.4969482
	c2.6760864,4.6658936,8.3574829,7.1696167,15.4904785,6.7128906c7.1546021-0.3418274,15.6686707-3.7754211,23.1703186-10.0195007
	c7.497406-6.258606,12.2411194-14.151062,13.8702698-21.0760193c1.6468811-6.9677429,0.184906-12.9784546-3.9295349-16.406189
	c-3.9300537-3.2820435-9.4644775-3.8530273-15.2642212-2.6360168c-3.7301636,0.721405-7.3786011,0.7267761-10.8360901-0.1166992
	c-3.4827576-0.8630066-6.688324-2.4877319-9.48172-4.8306274c-10.3022461-8.6356506-20.2541809-17.4894104-30.019928-26.719635
	c12.7110291-11.3764954,22.7825928-25.6243896,29.2308044-41.7219696
	c11.9768066,5.9984894,23.8386841,12.3781738,35.4113159,19.0825653
	c6.2631226,3.5949097,10.5470276,9.9441528,11.5532532,17.3959961c0.9486084,5.9341736,3.2200317,10.8608398,7.6818237,13.4586182
	c4.6138306,2.6931458,10.8476562,2.0674744,16.7742004-1.9069824c6.0704346-3.8497925,11.6741943-11.1203003,15.12146-20.2803955
	c1.5687561-4.6271667,2.625946-9.1937866,2.7506104-13.5300751c0.0968628-2.1579742,0.0621948-4.2290344-0.1385193-6.1905518
	c-0.2552185-1.9751892-0.6442261-3.8333435-1.1574402-5.5455017c-1.9698181-6.8546448-6.372345-11.3470306-11.6261597-12.2460022
	c-5.0848694-0.8761749-10.0027466,1.4378967-14.5324097,5.3776855c-5.5747986,5.0607758-12.9107666,7.1764374-20.0388489,5.89888
	c-13.1845093-2.3069153-26.3286743-5.0331116-39.3825073-8.1458893c3.6012573-10.9671326,5.5761108-22.6716003,5.5761108-34.8435516
	c0-5.4156036-0.4067688-10.734375-1.1520691-15.943924c13.341095-0.7733154,26.7442322-1.1590729,40.1939087-1.1385651
	c7.3536682-0.0258789,13.9651489,3.3587189,18.7244873,9.2894897c3.6025391,4.6632996,8.3076477,7.7778625,13.4057007,7.7931671
	c5.3942871,0.0196838,10.221344-3.6297302,13.5696411-10.0154419c1.5386353-3.1791687,2.7315674-7.0263519,3.3056641-11.2993317
	C400.4005737,174.014389,400.485199,169.3001556,399.5465088,164.5041962z M200.2781372,271.2229309
	c-39.4988861,0-71.6334839-32.1345978-71.6334839-71.6336365c0-39.4988708,32.1345978-71.6334839,71.6334839-71.6334839
	s71.6336365,32.134613,71.6336365,71.6334839C271.9117737,239.0883331,239.7770081,271.2229309,200.2781372,271.2229309z"/>
</svg>
