<?xml version="1.0" encoding="utf-8"?>
<!-- Generator: Adobe Illustrator 24.1.3, SVG Export Plug-In . SVG Version: 6.00 Build 0)  -->
<svg version="1.1" id="Layer_1" xmlns="http://www.w3.org/2000/svg" xmlns:xlink="http://www.w3.org/1999/xlink" x="0px" y="0px"
	 viewBox="0 0 512 512" style="enable-background:new 0 0 512 512;" xml:space="preserve">
<style type="text/css">
	.st0{fill:#3D98D3;}
</style>
<path class="st0" d="M214.3690033,329.9760132l-1.9869995,14.946991h-42.3829956v-65.8450012h19.4880066v50.8970032h24.8809967
	L214.3690033,329.9760132z"/>
<path class="st0" d="M279.6440125,311.9060059c0,21.3800049-10.973999,34.9089966-30.7460022,34.9089966
	s-30.7460022-13.0549927-30.7460022-34.9089966c0-21.381012,10.973999-34.7210083,30.7460022-34.7210083
	S279.6440125,290.052002,279.6440125,311.9060059z M238.3970032,311.9060059
	c0,15.2309875,3.121994,21.0969849,10.5010071,21.0969849c7.5690002,0,10.5010071-5.8659973,10.5010071-21.0969849
	s-3.1220093-20.9079895-10.5010071-20.9079895S238.3970032,296.6740112,238.3970032,311.9060059z"/>
<path class="st0" d="M342,285.7950134l-9.8389893,10.1229858c-3.973999-3.4060059-7.3789978-5.1090088-12.3940125-5.1090088
	c-9.0820007,0-14.2850037,6.7170105-14.2850037,21.1919861c0,16.2720032,3.4060059,21.0029907,11.0679932,21.0029907
	c2.5549927,0,4.6350098-0.5669861,6.7170105-1.6080017V319.381958h-6.6229858l-1.7969971-13.151001h27.151001v33.0169983
	c-7.0960083,4.8250122-16.651001,7.5690002-24.881012,7.5690002c-22.0429993,0-31.6919861-12.4880066-31.6919861-34.9089966
	c0-22.3269958,14.1900024-34.7210083,33.2059937-34.7210083c9.9330139,0,18.0700073,3.7850037,23.3680115,8.6099854L342,285.7950134
	z"/>
<path class="st0" d="M409.598999,183.6210022c0-0.3509979-0.0339966-0.6929932-0.053009-1.0399933
	c-0.0140076-0.2940063-0.0220032-0.5839996-0.0450134-0.8829956c-0.0069885-0.0769958-0.0140076-0.1529999-0.0220032-0.2279968
	c-0.881012-11.0299988-7.0279846-25.1069946-14.4330139-32.5110016h0.0010071l-83.2059937-83.2060013
	c-8.0029907-8.0039978-23.8129883-14.552002-35.1319885-14.552002H122.9779816
	c-11.3519974,0.0349998-20.5459976,9.2270012-20.5790024,20.5759964v368.4450073
	c0.0339966,11.3519897,9.2269974,20.54599,20.5759964,20.57901h266.0440063
	c11.3519897-0.0339966,20.54599-9.2279968,20.57901-20.5759888V184.0910339c0-0.0899963-0.0090027-0.1860046-0.0100098-0.2769928
	c0-0.0650024,0.0100098-0.1269989,0.0100098-0.1920013L409.598999,183.6210022z M353.1419983,163.6210022h-56.4309998V107.189003
	L353.1419983,163.6210022z M142.3999939,420.7999878V91.1999817h114.3110046v92.42099c0,11.0460052,8.95401,20,20,20h92.8890076
	v217.1790161H142.401001H142.3999939z"/>
</svg>
