<?xml version="1.0" encoding="utf-8"?>
<!-- Generator: Adobe Illustrator 25.1.0, SVG Export Plug-In . SVG Version: 6.00 Build 0)  -->
<svg version="1.1" id="Layer_1" xmlns="http://www.w3.org/2000/svg" xmlns:xlink="http://www.w3.org/1999/xlink" x="0px" y="0px"
	 viewBox="0 0 114 114" style="enable-background:new 0 0 114 114;" xml:space="preserve">
<style type="text/css">
	.st0{fill:#696566;}
</style>
<g id="g188" transform="translate(329.779, 270.223)">
	<path id="path190" class="st0" d="M-317.3037109-232.4492645c-1.4162903-3.1046906-4.9170837-4.5110016-8.185791-3.05867
		c-3.2727356,1.4543152-4.4770203,5.0831299-2.9986877,8.1898193l13.7250671,29.8326111
		c2.1584778,4.6750488,4.4329834,7.1255951,8.7019348,7.1255951c4.5610046,0,6.5494385-2.6685944,8.7059326-7.1255951
		c0,0,11.9706421-26.0657806,12.0906677-26.3378448c0.1220398-0.276062,0.5061035-1.1182404,1.7243958-1.1102448
		c1.0302124,0.0059967,1.8964233,0.828186,1.8964233,1.9324341v25.4896545c0,3.9288788,2.1784668,7.1515961,6.3713989,7.1515961
		c4.1889343,0,6.4534302-3.2227173,6.4534302-7.1515961v-20.8586273c0-4.0229034,2.8826599-6.6334839,6.8115234-6.6334839
		s6.543457,2.7046051,6.543457,6.6334839v20.8586273c0,3.9288788,2.1864777,7.1515961,6.3714142,7.1515961
		c4.1889191,0,6.4654236-3.2227173,6.4654236-7.1515961v-20.8586273c0-4.0229034,2.8706512-6.6334839,6.8015137-6.6334839
		c3.9228821,0,6.5474548,2.7046051,6.5474548,6.6334839v20.8586273c0,3.9288788,2.184494,7.1515961,6.3734283,7.1515961
		c4.1869202,0,6.4594269-3.2227173,6.4594269-7.1515961v-23.7392731c0-8.723938-7.015564-14.8352966-15.457428-14.8352966
		c-8.4318848,0-13.7130432,5.8332977-13.7130432,5.8332977c-2.8066254-3.6388092-6.6754913-5.8252869-13.2229462-5.8252869
		c-6.9095459,0-12.9568787,5.8252869-12.9568787,5.8252869c-2.8086243-3.6388092-7.5896912-5.8252869-11.5485535-5.8252869
		c-6.1233826,0-10.9864502,2.6925964-13.9530945,9.4761047l-8.7639465,20.6585846L-317.3037109-232.4492645z"/>
</g>
</svg>
