<?xml version="1.0" encoding="utf-8"?>
<!-- Generator: Adobe Illustrator 24.1.3, SVG Export Plug-In . SVG Version: 6.00 Build 0)  -->
<svg version="1.1" id="Layer_1" xmlns="http://www.w3.org/2000/svg" xmlns:xlink="http://www.w3.org/1999/xlink" x="0px" y="0px"
	 viewBox="0 0 527.2 360" style="enable-background:new 0 0 527.2 360;" xml:space="preserve">
<style type="text/css">
	.st0{fill:#4A5165;}
	.st1{fill:#55AF00;}
	.st2{fill:#FFFFFF;}
</style>
<g>
	<g>
		<g>
			<path class="st0" d="M58.2,333.9H26.3v-9.7h31.9c1.6,0,2.8-0.4,3.5-1.1c0.8-0.7,1.1-1.7,1.1-3c0-1.4-0.4-2.4-1.1-3
				c-0.8-0.7-2-1-3.6-1H39.5c-2.1,0-4-0.3-5.6-0.9c-1.7-0.6-3.2-1.6-4.4-2.7c-1.2-1.1-2.1-2.5-2.8-4.1c-0.6-1.6-1-3.3-1-5.1
				c0-1.8,0.3-3.5,0.9-5c0.6-1.6,1.5-2.9,2.7-4.1c1.2-1.1,2.7-2,4.4-2.7c1.7-0.6,3.7-1,5.8-1h30.6v9.7H39.6c-1.3,0-2.3,0.3-2.9,1
				c-0.6,0.6-1,1.5-1,2.8c0,1.2,0.3,2.1,1,2.7c0.7,0.6,1.6,1,2.9,1h18.7c4.4,0,7.9,1.1,10.3,3.3c2.4,2.2,3.7,5.5,3.7,9.8
				c0,1.9-0.3,3.6-0.9,5.2c-0.6,1.6-1.4,3-2.6,4.3c-1.2,1.2-2.7,2.2-4.4,2.8C62.6,333.6,60.5,333.9,58.2,333.9z"/>
		</g>
		<g>
			<path class="st0" d="M104.2,333.9h-9.7v-33.7H79v-9.7h40.7v9.7h-15.5V333.9z"/>
		</g>
		<g>
			<path class="st0" d="M155.2,333.9h-9.9c-3,0-5.8-0.6-8.4-1.7c-2.6-1.1-4.8-2.7-6.7-4.7c-1.9-2-3.4-4.3-4.4-7
				c-1-2.7-1.6-5.6-1.6-8.7c0-3.1,0.5-6.1,1.6-8.7c1.1-2.6,2.6-4.9,4.5-6.8c1.9-1.9,4.2-3.3,6.7-4.3c2.6-1,5.4-1.5,8.4-1.5h9.9
				c3.1,0,6,0.5,8.6,1.6c2.6,1,4.9,2.5,6.8,4.4c1.9,1.9,3.4,4.2,4.4,6.8c1,2.6,1.6,5.5,1.6,8.6c0,3.1-0.5,6.1-1.6,8.7
				c-1.1,2.7-2.5,5.1-4.4,7c-1.9,2-4.1,3.5-6.7,4.7C161.2,333.4,158.3,333.9,155.2,333.9z M145.3,300.2c-1.6,0-3.2,0.3-4.6,0.9
				c-1.4,0.6-2.6,1.4-3.6,2.4c-1,1-1.8,2.3-2.4,3.8c-0.6,1.5-0.9,3.1-0.9,4.9c0,1.7,0.3,3.4,0.9,4.9c0.6,1.5,1.4,2.8,2.4,3.8
				c1,1.1,2.2,1.9,3.6,2.5c1.4,0.6,2.9,0.9,4.6,0.9h9.9c1.7,0,3.3-0.3,4.7-0.9c1.4-0.6,2.6-1.4,3.7-2.5c1-1,1.8-2.3,2.4-3.8
				c0.6-1.5,0.9-3.1,0.9-4.9c0-1.7-0.3-3.4-0.9-4.8c-0.6-1.5-1.4-2.7-2.4-3.8c-1-1-2.2-1.9-3.7-2.5c-1.4-0.6-3-0.9-4.7-0.9H145.3z"
				/>
		</g>
		<path class="st0" d="M222.5,321.4c1.8-0.8,3.4-1.8,4.7-3.1c1.4-1.4,2.5-2.8,3.2-4.8c0.7-1.8,1-3.7,1.1-5.9c0-0.2,0-0.6,0-0.9v-0.1
			c0-2.4-0.4-4.6-1.1-6.6c-0.7-2-1.8-3.7-3.2-5.1c-1.4-1.4-3.1-2.5-5.1-3.3c-2-0.7-4.2-1.1-6.9-1h-30.1h-0.5v43.4h9.9v-11.3h16.4
			l10.2,11.3h13.8L222.5,321.4z M220.3,312.1c-1.1,1.1-2.7,1.7-4.9,1.7h-20.9v-13.7h20.9c2.1,0,3.8,0.5,4.9,1.6c1.1,1,1.7,2.7,1.7,5
			C222,309,221.4,311,220.3,312.1z"/>
		<path class="st0" d="M271.1,292.9c-0.5-0.9-1.1-1.6-1.8-2c-1.5-1.1-4-1.2-5.6,0c-0.7,0.5-1.3,1.2-1.8,2.1l-24.6,41h11.1l6.1-10.3
			h23.5l6.1,10.3h11.6L271.1,292.9z M257.9,316.2l8.4-14.3l8.5,14.3H257.9z"/>
		<g>
			<path class="st0" d="M343.4,333.9h-25.9c-3,0-5.8-0.6-8.4-1.7c-2.6-1.1-4.8-2.7-6.7-4.7c-1.9-2-3.4-4.3-4.4-7
				c-1.1-2.7-1.6-5.6-1.6-8.7c0-3.2,0.5-6.1,1.6-8.7c1-2.6,2.5-4.9,4.4-6.8c1.9-1.9,4.2-3.3,6.7-4.3c2.6-1,5.4-1.5,8.4-1.5h23.4v9.7
				h-23.4c-1.6,0-3.2,0.3-4.6,0.9c-1.4,0.6-2.6,1.4-3.6,2.4c-1,1-1.8,2.3-2.4,3.7c-0.6,1.4-0.9,3.1-0.9,4.9c0,1.7,0.3,3.4,0.9,4.9
				c0.6,1.5,1.4,2.8,2.4,3.8c1,1.1,2.2,1.9,3.6,2.5c1.4,0.6,2.9,0.9,4.6,0.9h16.2v-8.1h-18.4v-8.5h28.1V333.9z"/>
		</g>
		<g>
			<path class="st0" d="M393.6,300.2h-39.1v-9.7h39.1V300.2z"/>
		</g>
		<g>
			<path class="st0" d="M393.6,333.9h-39.1v-26.3H392v8.5h-27.8v8.1h29.5V333.9z"/>
		</g>
		<g>
			<path class="st1" d="M433.3,333.9h-9.9c-3,0-5.8-0.6-8.4-1.7c-2.6-1.1-4.8-2.7-6.7-4.7c-1.9-2-3.4-4.3-4.4-7
				c-1-2.7-1.6-5.6-1.6-8.7c0-3.1,0.5-6,1.6-8.7c1.1-2.6,2.5-4.9,4.4-6.8c1.9-1.9,4.2-3.3,6.7-4.3c2.6-1,5.4-1.5,8.4-1.5h9.9
				c3.1,0,6,0.5,8.6,1.6c2.6,1,4.9,2.5,6.7,4.4c1.9,1.9,3.4,4.1,4.4,6.7c1,2.6,1.6,5.5,1.6,8.6c0,3.1-0.5,6-1.6,8.7
				c-1,2.7-2.5,5-4.4,7c-1.9,2-4.1,3.5-6.7,4.7C439.3,333.4,436.4,333.9,433.3,333.9z M423.4,300.2c-1.7,0-3.2,0.3-4.6,0.9
				c-1.4,0.6-2.6,1.4-3.6,2.4c-1,1-1.8,2.3-2.4,3.7c-0.6,1.4-0.9,3.1-0.9,4.9c0,1.8,0.3,3.4,0.9,4.9c0.6,1.5,1.4,2.8,2.4,3.8
				c1,1.1,2.2,1.9,3.6,2.5c1.4,0.6,2.9,0.9,4.6,0.9h10c1.7,0,3.3-0.3,4.7-0.9c1.4-0.6,2.6-1.4,3.7-2.5c1-1,1.8-2.3,2.4-3.8
				c0.6-1.5,0.9-3.2,0.9-4.9c0-1.7-0.3-3.4-0.9-4.8c-0.6-1.5-1.4-2.7-2.4-3.8c-1-1-2.3-1.9-3.7-2.4c-1.4-0.6-3-0.9-4.7-0.9H423.4z"
				/>
		</g>
		<g>
			<path class="st1" d="M493.7,333.9h-31.9v-9.7h31.9c1.6,0,2.8-0.4,3.5-1.1c0.8-0.7,1.1-1.7,1.1-3c0-1.4-0.4-2.4-1.1-3
				c-0.8-0.7-2-1-3.6-1h-18.8c-2.1,0-4-0.3-5.6-0.9c-1.7-0.6-3.2-1.6-4.4-2.7c-1.2-1.2-2.1-2.5-2.8-4.1c-0.6-1.6-1-3.3-1-5.1
				c0-1.8,0.3-3.5,0.9-5c0.6-1.6,1.5-3,2.7-4.1c1.2-1.1,2.7-2,4.4-2.6c1.7-0.6,3.7-1,5.8-1h30.6v9.7H475c-1.3,0-2.3,0.3-2.9,1
				c-0.6,0.6-1,1.6-1,2.8c0,1.2,0.3,2.1,1,2.7c0.7,0.6,1.6,1,2.9,1h18.7c4.5,0,7.9,1.1,10.3,3.3c2.4,2.2,3.6,5.5,3.6,9.8
				c0,1.9-0.3,3.6-0.8,5.2c-0.6,1.7-1.5,3.1-2.6,4.3c-1.2,1.2-2.6,2.1-4.4,2.8C498,333.6,496,333.9,493.7,333.9z"/>
		</g>
	</g>
	<g>
		<path class="st0" d="M358,92.7h-43.9l-3.3-5.8l8.1-13.9l-10.7-18.5h-8.5L316,26.2c1.7-3,0.7-6.9-2.3-8.7c-3-1.8-6.9-0.7-8.7,2.3
			l-20.1,34.8h-36.5l-20.1-34.8c-1.7-3-5.6-4.1-8.7-2.3c-3,1.8-4.1,5.6-2.3,8.7l16.3,28.2h-8.5L214.4,73l8.1,13.9l-3.3,5.8h-43.9
			L149.7,137l25.6,44.3h43.9l47.6,80.6l47.5-80.6H358l25.6-44.3L358,92.7z M226.1,80.6l-4.4-7.6l7.1-12.2h8.5l0.2,0.3L226.1,80.6z
			 M295.9,61.1l0.2-0.3h8.5l7.1,12.2l-4.4,7.6L295.9,61.1z"/>
		<polygon class="st2" points="219.1,105.4 218.6,105.4 182.6,105.4 164.3,137 182.6,168.7 218.7,168.7 219.1,168.7 237.4,137 		"/>
		<polygon class="st2" points="350.7,105.4 314.2,105.4 314.1,105.4 295.9,137 314.2,168.7 314.2,168.7 350.7,168.7 369,137 		"/>
		<polygon class="st1" points="284.9,67.4 248.4,67.4 248.3,67.5 230.1,99.1 248.4,130.7 248.4,130.7 284.9,130.7 303.2,99.1 		"/>
		<polygon class="st1" points="283.3,209.6 283.3,209.6 266.7,237.3 250.2,209.9 250.2,209.9 230.1,175 245.5,148.3 248.4,143.4 
			284.9,143.4 303.2,175 		"/>
	</g>
</g>
</svg>
