<?xml version="1.0" encoding="utf-8"?>
<!-- Generator: Adobe Illustrator 25.2.3, SVG Export Plug-In . SVG Version: 6.00 Build 0)  -->
<svg version="1.1" id="Layer_1" xmlns="http://www.w3.org/2000/svg" xmlns:xlink="http://www.w3.org/1999/xlink" x="0px" y="0px"
	 viewBox="0 0 640.5 641" style="enable-background:new 0 0 640.5 641;" xml:space="preserve">
<style type="text/css">
	.st0{fill:none;stroke:#78C9CF;stroke-width:40;stroke-miterlimit:10;}
	.st1{fill:#3D98D3;}
</style>
<g>
	<g>
		<path class="st0" d="M513.173584,101.3905563c51.5313721,51.5318222,79.9105835,120.046257,79.9105835,192.9231262"/>
		<path class="st0" d="M47.4158592,294.3136902c0-72.8773193,28.3800621-141.3921814,79.9123383-192.9231262"/>
		<path class="st0" d="M465.2653503,149.2987823c38.734314,38.734787,60.0665588,90.2352905,60.0665588,145.0149078"/>
		<path class="st0" d="M115.1680832,294.3136902c0-54.7796173,21.3322372-106.2801208,60.0674667-145.0149078"/>
	</g>
	<g>
		<path class="st1" d="M320.2499695,206.9838867c48.1536865,0,87.3296509,39.1759949,87.3296509,87.3296509v143.0625v4.2018433
			H232.9203339v-4.2018433v-143.0625C232.9203339,246.1598816,272.096283,206.9838867,320.2499695,206.9838867
			 M320.2499695,156.9838867c-75.8449554,0-137.3296356,61.4844971-137.3296356,137.3296509v143.0625l-36.1345215,54.2018433
			h346.9282837l-36.1343994-54.2018433v-143.0625C457.5796814,218.4683838,396.0951233,156.9838867,320.2499695,156.9838867
			L320.2499695,156.9838867z"/>
	</g>
	<g>
		<circle class="st1" cx="320.25" cy="491.5768127" r="48.0326271"/>
	</g>
	<g>
		<path class="st1" d="M290.8265686,165.5845795v-23.4781189c0-16.2501144,13.1733093-29.4234314,29.4234314-29.4234314
			s29.4234314,13.173317,29.4234314,29.4234314v24.2468567L290.8265686,165.5845795z"/>
	</g>
</g>
</svg>
