<?xml version="1.0" encoding="utf-8"?>
<!-- Generator: Adobe Illustrator 24.1.3, SVG Export Plug-In . SVG Version: 6.00 Build 0)  -->
<svg version="1.1" id="Layer_1" xmlns="http://www.w3.org/2000/svg" xmlns:xlink="http://www.w3.org/1999/xlink" x="0px" y="0px"
	 viewBox="0 0 512 512" style="enable-background:new 0 0 512 512;" xml:space="preserve">
<style type="text/css">
	.st0{fill:#78C9CF;}
	.st1{fill:#3D98D3;}
</style>
<path class="st0" d="M234.5662994,299.1336975c0,23.6747437-19.1920471,42.8668213-42.8668213,42.8668213
	s-42.8668365-19.1920776-42.8668365-42.8668213c0-23.6747742,19.1920624-42.8668518,42.8668365-42.8668518
	S234.5662994,275.4589233,234.5662994,299.1336975z M363.1673584,299.1336975
	c0,23.6747437-19.1920776,42.8668213-42.8668213,42.8668213c-23.6747742,0-42.8668518-19.1920776-42.8668518-42.8668213
	c0-23.6747742,19.1920776-42.8668518,42.8668518-42.8668518
	C343.9752808,256.2668457,363.1673584,275.4589233,363.1673584,299.1336975z M296.4945679,191.0804291
	c0,22.688385-18.3925781,41.0809479-41.0809631,41.0809479s-41.0809479-18.3925629-41.0809479-41.0809479
	s18.3925781-41.0809479,41.0809479-41.0809479S296.4945679,168.3920593,296.4945679,191.0804291z"/>
<path class="st1" d="M256,51.1999931L256,51.1999931c-67.2799988,0-126.9660034,32.4519997-164.2969971,82.5490112
	l-29.677002-29.6770096c-3.8889999-3.8889999-7.0709991-2.5709991-7.0709991,2.9290009v92.0000076c0,5.5,4.5,10,10,10h92
	c5.5,0,6.8179932-3.1820068,2.9290009-7.0709991l-31.4599915-31.4600067
	C155.9940186,129.4210052,202.835022,102.4009933,256,102.4009933c84.8309937,0,153.6000061,68.7690048,153.6000061,153.6000061
	S340.8309937,409.6010132,256,409.6010132c-83.6459961,0-151.6710052-66.8630066-153.5549927-150.0559998H51.2450066
	C53.1390076,371.0160217,144.0770111,460.8010254,256,460.8010254c113.1080017,0,204.7999878-91.6920166,204.7999878-204.7999878
	S369.1079712,51.2010269,255.9999847,51.2010269L256,51.1999931z"/>
</svg>
