<?xml version="1.0" encoding="utf-8"?>
<!-- Generator: Adobe Illustrator 24.1.3, SVG Export Plug-In . SVG Version: 6.00 Build 0)  -->
<svg version="1.1" id="Layer_1" xmlns="http://www.w3.org/2000/svg" xmlns:xlink="http://www.w3.org/1999/xlink" x="0px" y="0px"
	 viewBox="0 0 453.3241577 439.9095764" style="enable-background:new 0 0 453.3241577 439.9095764;" xml:space="preserve">
<style type="text/css">
	.st0{fill:#0AB1D5;}
	.st1{fill:#F1DF36;}
	.st2{fill:#FAAF42;}
	.st3{fill:#9AD7EC;}
	.st4{fill:#FFFFFF;}
	.st5{fill:#1280C4;}
</style>
<path class="st0" d="M226.6629333-0.0027413L84.2849426,193.7442627l142.3800049,180.0979919l140.6350098-177.8119965
	L226.6629333-0.0027413z"/>
<g>
	<g transform="matrix(1.33333 0 0 -1.33333 0 755.905)">
		<path class="st1" d="M104.3958588,236.9981689h0.0079956l131.2100067,0.0299988h0.0140076
			c3.0629883,0,6.1069946,0.6600037,8.9160156,1.8639984l-74.54599,47.655014l-74.1329956-47.8500061
			c2.6999969-1.1000061,5.6080017-1.6999969,8.5299988-1.6999969"/>
		<path class="st2" d="M275.4738464,419.9061584L169.9958496,286.5471802l74.5469971-47.655014
			c3.3919983,1.4519958,6.4389954,3.6970062,8.7470093,6.5599976l75.1040039,93.4300079l6.6860046,8.3169861
			c1.3737793,1.7166443,2.4824524,3.6295776,3.2890015,5.6749878c0.3840027,0.9649963,0.7000122,1.95401,0.9500122,2.9620056
			L275.4738464,419.9061584z"/>
		<path class="st2" d="M0.5648499,356.1971741c0.5796967-2.577179,1.6138458-5.0305176,3.0540009-7.2449951
			c0.3999939-0.6140137,0.8300018-1.2090149,1.2850037-1.7829895l81.822998-101.7350006
			c2.3959961-2.9750061,5.5879974-5.2890015,9.1380005-6.7360077l74.1330109,47.8500061L63.2128601,421.6211853
			L0.5648499,356.1971741z"/>
		<path class="st3" d="M34.6838531,502.7041626c-2.4400635-2.7939453-4.15242-6.1471863-4.9850006-9.7619934L0.5488586,366.1421509
			c-0.6499939-2.8259888-0.7140045-5.7739868-0.2380066-8.6329956c0.072998-0.4400024,0.1549988-0.8779907,0.2539978-1.3120117
			l62.647995,65.4240112L34.6838531,502.7041626z M339.3188477,355.8361816
			c0.8370056,3.3779907,0.9129944,6.9429932,0.131012,10.3370056l-29.2070007,126.8730164
			c-0.7819519,3.3922424-2.3454895,6.5549316-4.5660095,9.2359924l-30.20401-82.3760071L339.3188477,355.8361816z"/>
		<path class="st4" d="M172.9358521,411.4211731l40.6229858,41.32901h-26.5839844l-32.8300171-35.0570068v71.3259888h-20.678009
			V355.3191528h20.6789856v40.0700073l3.2690125,3.1799927l33.4599915-43.25h27.0299988L172.9358521,411.4211731z"/>
		<path class="st5" d="M130.967865,513.821167l39.0279846,53.1090088h-0.0329895l-0.1409912-0.0020142
			c-0.3338013-0.0008545-0.667572-0.0092163-1.0010071-0.0250244c-0.0400085-0.0020142-0.0769958-0.0100098-0.1149902-0.0120239
			c-2.9637756-0.1617432-5.867157-0.902771-8.54599-2.1810303l-118.214035-56.4819031
			c-2.7721863-1.3261719-5.243576-3.2057495-7.2619934-5.5230103l28.529007-81.0830078l67.7550049,92.2290344V513.821167z
			 M298.0708618,508.2301636L179.7828674,564.710144c-3.0567017,1.4563599-6.3990784,2.2146606-9.7850037,2.2199707
			l105.4750061-147.0239868l30.20401,82.3770142c-2.0719299,2.5126343-4.6677856,4.5422668-7.6059875,5.946991"/>
	</g>
</g>
</svg>
