<svg id="Layer_1" data-name="Layer 1" xmlns="http://www.w3.org/2000/svg" viewBox="0 0 200 165"><defs><style>.cls-1{fill:#004d93;}.cls-2{fill:#fff;}</style></defs><rect class="cls-1" width="200" height="165" rx="20"/><path class="cls-2" d="M47.47705,106.63965V79.39258H138.4375A38.13967,38.13967,0,0,0,133.749,97.75879v13.209a54.28243,54.28243,0,0,0,8.01612-3.15918l6.584-3.21777,5.3999,2.63721V97.75879a18.38728,18.38728,0,0,1,18.36621-18.36621v-20H101.63916V47.46484h10v-20H27.47705v20H37.69336V59.39258H27.47705v53.14258c6.8833,0,13.99609-2.96192,17.60791-4.72657ZM57.69336,47.46484h23.9458V59.39258H57.69336Z"/><path class="cls-2" d="M152.73975,112.2998l-4.39014-2.14453-4.38916,2.14551c-4.00049,1.95508-11.88916,5.23438-19.77881,5.23438-7.88867,0-15.77881-3.2793-19.77978-5.23438l-4.39063-2.14551-4.39014,2.14551c-4.00048,1.95508-11.88867,5.23438-19.77734,5.23438-7.88623,0-15.78027-3.28028-19.78369-5.23536l-4.39014-2.14453-4.38916,2.14551c-4.00049,1.95508-11.91455,5.23438-19.80371,5.23438v20a64.07656,64.07656,0,0,0,24.19531-5.27832,63.97238,63.97238,0,0,0,24.17139,5.27832,63.93549,63.93549,0,0,0,24.16846-5.27735,63.94492,63.94492,0,0,0,24.16943,5.27735,63.94139,63.94139,0,0,0,24.17041-5.27832,63.97187,63.97187,0,0,0,24.1709,5.27832v-20C164.63721,117.53516,156.74316,114.25488,152.73975,112.2998Z"/></svg>