<?xml version="1.0" encoding="utf-8"?>
<!-- Generator: Adobe Illustrator 24.1.3, SVG Export Plug-In . SVG Version: 6.00 Build 0)  -->
<svg version="1.1" id="Layer_1" xmlns="http://www.w3.org/2000/svg" xmlns:xlink="http://www.w3.org/1999/xlink" x="0px" y="0px"
	 viewBox="0 0 512 512" style="enable-background:new 0 0 512 512;" xml:space="preserve">
<style type="text/css">
	.st0{fill:#BFBFBF;}
	.st1{fill:#7D9199;}
	.st2{fill:#566366;}
	.st3{fill:#FFFFFF;}
</style>
<g transform="matrix(.152708 0 0 .152708 -18.466589 -5.944623)">
	<path class="st0" d="M1121.0770264,464.5769958c0,0-140.0344849,470.9708557-129.8610229,611.0053711
		c7.1812134,98.1439209,189.704895,226.8081055,189.704895,226.8081055s-99.3408203,117.892334-137.6408691,184.3189697
		c-39.4968872,68.2219238-99.9390869,225.0126953-99.9390869,225.0126953s-299.2191162-351.2832031-274.6831665-523.6334229
		C697.9812622,979.8322144,1121.0770264,464.5769348,1121.0770264,464.5769958z M2480.1303711,464.5769958
		c0,0,140.0344238,470.9708557,129.861084,611.0053711c-7.1813965,98.1439209-189.7050781,226.8081055-189.7050781,226.8081055
		s99.3408203,117.892334,137.6408691,184.3189697c39.4970703,68.2219238,99.939209,225.0126953,99.939209,225.0126953
		s299.2192383-351.2832031,274.6831055-523.6334229C2903.2260742,979.8323364,2480.1303711,464.5769958,2480.1303711,464.5769958z"
		/>
	<path class="st1" d="M1805.092041,1016.3370361c-396.7645264,0-746.8509521,280.6674805-862.3494873,692.3929443
		l862.3494873,286.0533447V1016.3370361z"/>
	<path class="st2" d="M1804.4935303,1014.541748c396.7647705,0,746.8509521,281.2659912,862.3494873,692.3929443
		l-862.3494873,286.0534668V1014.541748z"/>
	<path class="st1" d="M1802.6981201,1708.1315918H940.9470825v602.6271973c0,0,348.2910767,136.4438477,491.9161987,246.5566406
		c119.0892334,91.5610352,348.8895264,415.3161621,348.8895264,415.3161621h21.5438232v-1264.5H1802.6981201z"/>
	<path class="st2" d="M1803.2966309,1699.75354h861.7509766v602.6273193c0,0-348.2910156,136.4438477-491.9160156,246.5566406
		c-122.6799316,93.954834-350.0864258,423.0957031-350.0864258,423.0957031h-20.9453125L1803.2966309,1699.75354z"/>
	<circle class="st3" cx="1803.8951416" cy="1679.4064941" r="108.3173523"/>
</g>
</svg>
