<?xml version="1.0" encoding="utf-8"?>
<!-- Generator: Adobe Illustrator 25.2.3, SVG Export Plug-In . SVG Version: 6.00 Build 0)  -->
<svg version="1.1" id="Layer_1" xmlns="http://www.w3.org/2000/svg" xmlns:xlink="http://www.w3.org/1999/xlink" x="0px" y="0px"
	 viewBox="0 0 512 512" style="enable-background:new 0 0 512 512;" xml:space="preserve">
<style type="text/css">
	.st0{fill:#9D76B3;}
	.st1{fill:#6C8BC6;}
	.st2{fill:#C5579F;}
	.st3{fill:#009DDA;}
	.st4{fill:#ED3C78;}
	.st5{fill:#00B2E4;}
	.st6{fill:#58595B;}
	.st7{fill:#404041;}
</style>
<g>
	<g>
		<path class="st0" d="M382.0737915,153.9126434l14.553894-14.5541534
			c-37.6505127-35.8741226-83.0159607-54.6645584-135.0076904-55.9232101v20.592041
			C308.1971741,105.4277649,350.4057617,124.111351,382.0737915,153.9126434z"/>
		<path class="st1" d="M250.3797455,104.0273209v-20.592041c-51.9917297,1.2586517-97.3569336,20.0490875-135.0094452,55.9232101
			l14.5549011,14.5549011C161.5929871,124.1118546,203.8018188,105.4280167,250.3797455,104.0273209z"/>
		<path class="st2" d="M439.907959,282.315033H460.5c-1.258667-51.991745-20.0491028-97.3569336-55.9232178-135.0074615
			l-14.5541382,14.5539093C419.8236694,193.5292664,438.5072632,235.7375946,439.907959,282.315033z"/>
		<path class="st3" d="M121.9763641,161.8622284l-14.5549011-14.554657
			C71.5473404,184.9598389,52.7569046,230.323288,51.5,282.315033h20.592041
			C73.4927368,235.7380981,92.175827,193.5297699,121.9763641,161.8622284z"/>
		<path class="st4" d="M390.0218811,414.0098267l14.5549011,14.5549011
			C440.4508972,390.9124451,459.241333,345.5469971,460.5,293.5552673h-20.592041
			C438.5075073,340.1329651,419.8236694,382.3417969,390.0218811,414.0098267z"/>
		<path class="st5" d="M72.092041,293.5552673H51.5c1.2569046,51.9917297,20.0473404,97.3551941,55.921463,135.0094604
			l14.5559006-14.5556641C92.1760788,382.3410339,73.492485,340.1326904,72.092041,293.5552673z"/>
	</g>
	<path class="st6" d="M264.2348328,304.9934998c-1.9519043,0-3.531311-1.5811462-3.531311-3.531311v-27.053833
		c0-1.9501648,1.5794067-3.531311,3.531311-3.531311c7.6109314,0,149.7947388,13.0027466,154.1019897,13.5562439
		c1.762207,0.2258606,3.0830078,1.7259827,3.0830078,3.5019836s-1.3208008,3.276123-3.0830078,3.5020142
		C414.0295715,291.9907532,271.8457642,304.9934998,264.2348328,304.9934998z"/>
	<circle class="st7" cx="256" cy="287.9352722" r="27.2996521"/>
</g>
</svg>
